PathFileType	4	(X/Y/Z)	SUBJ51_2_walk_RCNL2025.trc
DataRate	CameraRate	NumFrames	NumMarkers	Units	OrigDataRate	OrigDataStartFrame	OrigNumFrames
100	100	13	25	mm	100	144	229
Frame#	Time	R_Shoulder			L_Shoulder			C7			J_Notch			R_Elbow			L_Elbow			R_Wrist			L_Wrist			R_Asis			L_Asis			Sacral			Thoracic			Sternum			R_Thigh_Lateral			R_Knee_Lateral			R_Shank_Lateral			R_Ankle_Lateral			R_Heel			R_Toe			L_Thigh_Lateral			L_Knee_Lateral			L_Shank_Lateral			L_Ankle_Lateral			L_Heel			L_Toe		
		X1	Y1	Z1	X2	Y2	Z2	X3	Y3	Z3	X4	Y4	Z4	X5	Y5	Z5	X6	Y6	Z6	X7	Y7	Z7	X8	Y8	Z8	X9	Y9	Z9	X10	Y10	Z10	X11	Y11	Z11	X12	Y12	Z12	X13	Y13	Z13	X14	Y14	Z14	X15	Y15	Z15	X16	Y16	Z16	X17	Y17	Z17	X18	Y18	Z18	X19	Y19	Z19	X20	Y20	Z20	X21	Y21	Z21	X22	Y22	Z22	X23	Y23	Z23	X24	Y24	Z24	X25	Y25	Z25
144	1.43000000	269.413635	1445.749512	410.993347	221.653580	1451.335083	-42.467899	160.959732	1571.246582	180.573196	301.174377	1445.812378	180.676804	252.727783	1168.843140	548.750549	58.086926	1163.921631	-105.758507	466.309540	1009.813904	533.402679	22.029130	901.665924	-106.934204	271.032410	1002.740662	327.950500	299.245026	1006.011475	84.514915	62.453663	1039.498291	188.869308	53.168545	1367.150391	195.120483	335.381836	1215.117310	184.950211	129.800705	618.151428	399.995453	67.298759	505.007050	353.433167	-69.370811	333.143066	418.942139	-215.674332	144.631393	312.320862	-264.425964	164.258286	258.319733	-95.670509	44.237400	278.349213	317.146545	631.913147	-25.343773	349.299103	518.897705	21.843021	379.091522	327.906494	-18.424131	443.079620	69.726341	87.277107	395.891663	71.793167	151.215714	601.938599	64.448059	98.230194
145	1.44000000	284.665070	1448.088379	408.804504	236.620560	1452.095337	-44.406773	176.013580	1573.287476	177.856796	316.176666	1447.803955	178.403229	263.762604	1170.581787	546.031006	75.817665	1163.333862	-107.292603	473.893616	1006.891632	531.875122	42.418908	900.571899	-108.816551	286.689667	1003.801575	326.065491	314.712433	1008.835449	82.952225	77.806808	1041.231934	188.342819	68.268959	1368.893066	193.668610	350.730560	1217.141357	183.457230	149.626755	617.852051	398.689667	87.956375	504.728821	352.505585	-54.176067	338.067963	418.431274	-205.315140	153.310699	312.723480	-251.948212	175.642227	257.992523	-93.529259	44.074493	278.048859	332.496765	634.492676	-26.946333	362.904083	520.776245	20.099895	390.450806	329.547150	-20.633284	445.032166	69.577881	86.594063	397.460724	72.941940	150.206161	603.980835	59.795570	98.102631
146	1.45000000	299.808746	1450.894531	406.676392	251.653519	1453.335083	-46.264435	190.956253	1575.615967	175.264145	331.079865	1450.096069	176.255173	274.526001	1172.659058	543.151001	93.901085	1163.108643	-108.845413	480.628860	1003.730408	530.228455	63.666189	899.839539	-110.738979	302.170288	1005.346924	324.071594	329.713287	1011.848022	81.474449	92.995903	1043.268677	187.742889	83.264381	1370.890015	192.292648	365.884277	1219.476440	182.079620	170.721329	617.635864	397.462830	110.089561	504.459503	351.700226	-37.417511	343.353943	417.900055	-193.036316	162.412125	312.934845	-237.060913	187.563705	257.286682	-90.919708	44.164993	277.626282	347.414795	637.050049	-28.423565	375.802185	522.594421	18.634651	400.767334	331.090790	-22.449194	446.559418	69.667915	86.191818	398.595581	73.938774	149.391022	605.424255	56.447033	98.299622
147	1.46000000	314.767365	1454.044434	404.625000	266.745483	1454.990479	-48.040768	205.772812	1578.139282	172.802551	345.860291	1452.593994	174.254517	285.044312	1174.989136	540.169250	112.271179	1163.204956	-110.444038	486.574493	1000.360687	528.458313	85.741941	899.440277	-112.681786	317.438232	1007.283997	322.011780	344.332886	1014.968140	80.007172	108.006042	1045.514160	187.008438	98.133339	1373.055298	190.960739	380.821747	1222.015137	180.813889	192.923508	617.525879	396.338654	133.555359	504.202454	351.024689	-19.064407	348.893372	417.387848	-178.782654	171.808807	313.029205	-219.758774	199.845947	256.344482	-87.646614	44.708858	277.112885	361.482758	639.359253	-29.668800	387.802582	524.241638	17.515535	409.886841	332.446350	-23.739296	447.747498	69.922928	86.085495	399.386169	74.770393	148.817841	606.423828	54.182194	98.838753
148	1.47000000	329.463318	1457.390625	402.670868	281.887756	1456.976929	-49.736507	220.456619	1580.769775	170.471497	360.500763	1455.204224	172.415375	295.334137	1177.463379	537.143616	130.867523	1163.562622	-112.116333	491.803314	996.805634	526.567505	108.602325	899.331726	-114.627567	332.484711	1009.509583	319.927246	358.668488	1018.110718	78.489372	122.837090	1047.872925	186.085327	112.861259	1375.308716	189.625992	395.539368	1224.657471	179.637436	215.974792	617.567993	395.334930	158.141769	503.991119	350.466614	0.847526	354.570526	416.935242	-162.599701	181.388535	313.088928	-200.186081	212.308838	255.338501	-83.427727	45.945400	276.560944	374.384216	641.243225	-30.622753	398.791779	525.639832	16.758669	417.770172	333.570251	-24.449699	448.674988	70.272125	86.241676	399.938568	75.454521	148.500381	607.117432	52.739735	99.580055
149	1.48000000	343.832123	1460.776978	400.837433	297.069214	1459.199463	-51.353600	235.001984	1583.425537	168.269623	374.994232	1457.841431	170.742462	305.398743	1179.957886	534.124023	149.642822	1164.112793	-113.888504	496.398438	993.082886	524.567947	132.196526	899.469360	-116.566242	347.325104	1011.926453	317.853333	372.801880	1021.184326	76.890511	137.495544	1050.260986	184.937927	127.439949	1377.588135	188.232452	410.046783	1227.317017	178.515030	239.559494	617.821594	394.472961	183.602280	503.888275	350.005310	22.237133	360.259033	416.580170	-144.624695	191.060928	313.172882	-178.623260	224.767990	254.420746	-77.876724	48.114925	276.039581	386.018036	642.625305	-31.286732	408.741302	526.743103	16.330551	424.465942	334.440643	-24.610889	449.414032	70.652390	86.606026	400.347046	76.017708	148.427399	607.618835	51.869789	100.370384
150	1.49000000	357.831482	1464.056030	399.149872	312.277649	1461.563843	-52.895393	249.402283	1586.036499	166.195679	389.341797	1460.438354	169.230057	315.229767	1182.346069	531.149536	168.565094	1164.786987	-115.781731	500.447845	989.206512	522.480453	156.474731	899.816742	-118.497463	361.983887	1014.452393	315.826324	386.780487	1024.093140	75.217918	151.988144	1052.613037	183.557983	141.867477	1379.853638	186.723846	424.362579	1229.926025	177.408615	263.353119	618.350159	393.780670	209.691238	503.979523	349.626526	44.999630	365.819061	416.350006	-125.054138	200.746048	313.285156	-155.448547	237.016922	253.665298	-70.501869	51.397717	275.626038	396.484039	643.532776	-31.715153	417.695404	527.539062	16.159248	430.073761	335.050110	-24.333044	450.023346	71.015327	87.121147	400.678040	76.482666	148.569244	608.014221	51.362797	101.130287
151	1.50000000	371.445435	1467.103516	397.632782	327.501740	1463.985962	-54.365597	263.654877	1588.554932	164.245789	403.548523	1462.953491	167.862274	324.814362	1184.514038	528.248657	187.616135	1165.526489	-117.808762	504.036407	985.191040	520.332550	181.391571	900.353729	-120.429893	376.481750	1017.023682	313.889923	400.614075	1026.744995	73.512634	166.319290	1054.888550	181.968552	156.148178	1382.083862	185.054550	438.509705	1232.440796	176.287308	287.070770	619.215027	393.288422	236.192093	504.361023	349.329956	69.013939	371.102844	416.250031	-104.102837	210.348358	313.359985	-131.091660	248.808319	253.031723	-60.741238	55.848610	275.399017	406.005768	644.066040	-31.993711	425.752014	528.048401	16.150185	434.711212	335.412506	-23.779211	450.546783	71.331993	87.729134	400.973450	76.868866	148.880173	608.361511	51.062237	101.835159
152	1.51000000	384.684937	1469.831421	396.305939	342.732452	1466.399780	-55.766045	277.767334	1590.960571	162.412247	417.621033	1465.370728	166.615952	334.144562	1186.377441	525.437683	206.790573	1166.289795	-119.972160	507.237442	981.055145	518.154785	206.906090	901.082214	-122.379253	390.831451	1019.596985	312.093048	414.286407	1029.066772	71.833382	180.492416	1057.070435	180.221756	170.290665	1384.269409	183.199097	452.511871	1234.843872	175.133286	310.510406	620.468445	393.020844	262.933716	505.125000	349.127319	94.134109	375.977783	416.251678	-81.970886	219.729904	313.274231	-105.982956	259.855194	252.372330	-48.041241	61.358562	275.436096	414.857117	644.361023	-32.216934	433.040802	528.320374	16.203320	438.498383	335.569916	-23.128654	451.012878	71.591095	88.367981	401.255066	77.195290	149.297180	608.689880	50.864090	102.465721
153	1.52000000	397.584747	1472.193359	395.178253	357.963226	1468.760742	-57.094578	291.759064	1593.258301	160.685043	431.568176	1467.691162	165.465866	343.225250	1187.894287	522.719360	226.094910	1167.055176	-122.265694	510.105988	976.823944	515.975311	232.978348	902.024567	-124.364193	405.038757	1022.148376	310.481171	427.771942	1031.018433	70.233208	194.513306	1059.161621	178.391647	184.305420	1386.406006	181.156097	466.391998	1237.140259	173.943207	333.581451	622.146301	392.987640	289.794556	506.345276	349.036072	120.173584	380.369507	416.288666	-58.820469	228.698166	312.883636	-80.486977	269.856049	251.485535	-31.960958	67.659721	275.806641	423.294525	644.551514	-32.470657	439.699249	528.421936	16.228966	441.558411	335.589355	-22.543333	451.433777	71.793839	88.974800	401.525299	77.479431	149.744125	609.001770	50.706928	102.996185
154	1.53000000	410.196350	1474.185547	394.243439	373.188660	1471.045898	-58.344662	305.656677	1595.467041	159.054108	445.402985	1469.921265	164.390579	352.078278	1189.069580	520.081238	245.543655	1167.821167	-124.677795	512.675949	972.528473	513.813736	259.557892	903.210114	-126.397202	419.106995	1024.668945	309.083496	441.049561	1032.599243	68.739456	208.392517	1061.179932	176.563965	198.204056	1388.489502	178.946289	480.171509	1239.348145	172.726501	356.308136	624.263184	393.177643	316.696075	508.064301	349.071777	146.897751	384.304596	416.264160	-34.756866	237.015854	312.069916	-54.829750	278.531250	250.190186	-12.270522	74.366226	276.553802	431.493469	644.737854	-32.817928	445.849731	528.422363	16.158386	444.031342	335.546631	-22.141014	451.809631	71.949074	89.496941	401.773163	77.735878	150.147705	609.284241	50.559414	103.409447
155	1.54000000	422.578552	1475.841431	393.480408	388.403107	1473.250366	-59.507450	319.486786	1597.605225	157.510193	459.143066	1472.065186	163.375839	360.743713	1189.949951	517.498474	265.153290	1168.601685	-127.194038	514.961288	968.204681	511.677887	286.569290	904.657928	-128.473526	433.043854	1027.153687	307.897827	454.112030	1033.845581	67.344635	222.145523	1063.151001	174.823761	211.999451	1390.515991	176.607193	493.869904	1241.489624	171.500870	378.804840	626.812561	393.558136	343.587677	510.284485	349.239441	174.040146	387.914703	416.070801	-9.820135	244.425217	310.777679	-29.057707	285.655396	248.384369	10.998334	81.037857	277.676849	439.519379	644.970520	-33.289951	451.581635	528.379395	15.948217	446.089417	335.504486	-21.981157	452.135986	72.068932	89.902893	401.985626	77.976479	150.455643	609.522888	50.409977	103.705345
156	1.55000000	434.788116	1477.220337	392.858093	403.598297	1475.383057	-60.575253	333.270294	1599.679810	156.045319	472.808105	1474.121216	162.414734	369.277039	1190.607910	514.939148	284.935394	1169.420288	-129.798508	516.960861	963.891479	509.563156	313.914337	906.375122	-130.569691	446.867981	1029.590698	306.882874	466.972717	1034.825195	66.006790	235.789917	1065.099731	173.243042	225.705566	1392.479370	174.186768	507.505249	1243.580078	170.285660	401.227814	629.770996	394.078918	370.427887	512.966919	349.528992	201.344604	391.383911	415.624084	16.001846	250.673706	309.026245	-3.059504	291.075562	246.066757	37.578552	87.248634	279.125641	447.348267	645.254395	-33.886452	456.943726	528.330627	15.582100	447.930573	335.497803	-22.067650	452.409271	72.165421	90.185585	402.155609	78.210609	150.645203	609.709656	50.258354	103.897301
